<?xml version="1.0"?>
<svg xmlns="http://www.w3.org/2000/svg" xmlns:xlink="http://www.w3.org/1999/xlink" version="1.1" id="Capa_1" x="0px" y="0px" width="100px" height="100px" viewBox="0 0 52.166 52.166" style="enable-background:new 0 0 52.166 52.166;" xml:space="preserve" class=""><g><g>
	<path d="M38.834,32.949c-1.964,0-3.556-1.662-3.556-3.713V18.314c0-2.05,0.317-4.548,0.503-5.628   c0.109-0.637,0.167-1.297,0.167-1.976C35.948,4.604,31.462,0,25.514,0c-5.948,0-10.432,4.604-10.432,10.71   c0,0.327,0.015,0.648,0.043,0.965c0.046,0.531-1.104,0.958-2.614,0.958c-1.51,0-2.734,1.661-2.734,3.711v8.372   c0,2.05,1.337,3.711,2.987,3.711s2.988,1.661,2.988,3.712v16.315c0,2.051,1.661,3.712,3.711,3.712h19.215   c2.049,0,3.711-1.661,3.711-3.712V36.66C42.389,34.609,40.799,32.949,38.834,32.949z M25.473,4.763c2.578,0,4.552,1.735,4.552,4.85   c0,3.112-1.975,4.855-4.552,4.855c-2.574,0-4.549-1.743-4.549-4.855C20.924,6.498,22.899,4.763,25.473,4.763z M33.117,47.402   c-2.104,0-3.811,0-3.811,0h-3.833c-2.117,0-3.834-1.642-3.834-3.666c0-2.025,0-3.668,0-3.668v-13.86   c0-2.343-1.433-4.241-3.201-4.241s-3.201-0.821-3.201-1.834c0-1.013,1.432-1.833,3.201-1.833s3.201,0,3.201,0h3.834   c2.116,0,3.833,1.897,3.833,4.239v13.289c0,2.343,1.707,4.24,3.811,4.24s3.811,1.643,3.811,3.668S35.223,47.402,33.117,47.402z" data-original="#000000" class="active-path" data-old_color="#000000" fill="#0098FE"/>
</g></g> </svg>
