<?xml version="1.0"?>
<svg xmlns="http://www.w3.org/2000/svg" id="bold" enable-background="new 0 0 24 24" height="100px" viewBox="0 0 24 24" width="100px"><g><circle cx="4" cy="10" r="2" data-original="#000000" class="active-path" data-old_color="#000000" fill="#0098FE"/><path d="m6.67 13.4c-1.01.76-1.67 1.98-1.67 3.35v.25h-4.25c-.41 0-.75-.34-.75-.75v-.5c0-1.52 1.23-2.75 2.75-2.75h2.5c.52 0 1.01.15 1.42.4z" data-original="#000000" class="active-path" data-old_color="#000000" fill="#0098FE"/><circle cx="20" cy="10" r="2" data-original="#000000" class="active-path" data-old_color="#000000" fill="#0098FE"/><path d="m24 15.75v.5c0 .41-.34.75-.75.75h-4.25v-.25c0-1.37-.66-2.59-1.67-3.35.41-.25.9-.4 1.42-.4h2.5c1.52 0 2.75 1.23 2.75 2.75z" data-original="#000000" class="active-path" data-old_color="#000000" fill="#0098FE"/><circle cx="12" cy="9.5" r="3" data-original="#000000" class="active-path" data-old_color="#000000" fill="#0098FE"/><path d="m14.75 14h-5.5c-1.517 0-2.75 1.233-2.75 2.75v1.5c0 .414.336.75.75.75h9.5c.414 0 .75-.336.75-.75v-1.5c0-1.517-1.233-2.75-2.75-2.75z" data-original="#000000" class="active-path" data-old_color="#000000" fill="#0098FE"/></g> </svg>
